<?xml version="1.0" standalone="no"?>
<!DOCTYPE svg PUBLIC "-//W3C//DTD SVG 1.1//EN" "http://www.w3.org/Graphics/SVG/1.1/DTD/svg11.dtd" >
<svg xmlns="http://www.w3.org/2000/svg" xmlns:xlink="http://www.w3.org/1999/xlink" version="1.1">
<metadata>
Created by FontForge 20170731 at Mon Sep 13 12:40:34 2021
 By Aleksey,,,
</metadata>
<defs>
<font id="NotoSansJP-Thin-Alphabetic" horiz-adv-x="2048" vert-adv-y="2048" >
  <font-face 
    font-family="NotoSansJP-Thin-Alphabetic"
    font-weight="100"
    font-stretch="normal"
    units-per-em="2048"
    panose-1="2 0 2 3 0 0 0 0 0 0"
    ascent="1638"
    descent="-410"
    bbox="68 -524 1948 1651"
    underline-thickness="102"
    underline-position="-307"
    unicode-range="U+FF21-FF5A"
  />
<missing-glyph horiz-adv-x="748" 
d="M68 0v1365h544v-1365h-544zM136 68h408v1229h-408v-1229z" />
    <glyph glyph-name=".notdef" horiz-adv-x="748" 
d="M68 0v1365h544v-1365h-544zM136 68h408v1229h-408v-1229z" />
    <glyph glyph-name=".null" horiz-adv-x="0" vert-adv-y="0" 
 />
    <glyph glyph-name="nonmarkingreturn" horiz-adv-x="682" 
 />
    <glyph glyph-name="uniE6C7" unicode="&#xff21;" 
d="M360 0l607 1487h77l607 -1487h-80l-215 528h-705l-215 -528h-76zM676 590h659l-123 311q-152 380 -202 510h-9q-29 -81 -200 -510z" />
    <glyph glyph-name="uniE6C8" unicode="&#xff22;" 
d="M528 0v1487h465q276 0 410.5 -88.5t134.5 -272.5q0 -119 -64.5 -202.5t-195.5 -120.5v-10q174 -23 268 -117.5t94 -243.5q0 -228 -141.5 -330t-464.5 -102h-506zM602 827h330q283 0 404.5 69t121.5 226q0 161 -117 230t-380 69h-359v-594zM602 68h391q304 0 438 79.5
t134 280.5q0 172 -136.5 252t-445.5 80h-381v-692z" />
    <glyph glyph-name="uniE6C9" unicode="&#xff23;" 
d="M1145 -25q-210 0 -372 96.5t-251.5 272.5t-89.5 404q0 227 90.5 400.5t256 268t382.5 94.5q139 0 253.5 -49t187.5 -123l-50 -51q-71 71 -173 112.5t-218 41.5q-296 0 -472.5 -190t-176.5 -504q0 -315 175 -509t462 -194q135 0 245.5 45.5t211.5 140.5l49 -49
q-104 -103 -226.5 -155t-283.5 -52z" />
    <glyph glyph-name="uniE6CA" unicode="&#xff24;" 
d="M496 0v1487h378q200 0 350.5 -53t244 -151.5t140 -232t46.5 -300.5q0 -168 -46 -303.5t-139 -236t-243.5 -155.5t-349.5 -55h-381zM567 70h297q182 0 320 51t222.5 143t126.5 214t42 272q0 149 -42 269.5t-127 210t-222.5 138.5t-319.5 49h-297v-1347z" />
    <glyph glyph-name="uniE6CB" unicode="&#xff25;" 
d="M610 0v1487h930v-70h-856v-590h717v-69h-717v-688h881v-70h-955z" />
    <glyph glyph-name="uniE6CC" unicode="&#xff26;" 
d="M655 0v1487h928v-70h-850v-618h719v-70h-719v-729h-78z" />
    <glyph glyph-name="uniE6CD" unicode="&#xff27;" 
d="M1118 -27q-218 0 -384 96.5t-256.5 272.5t-90.5 406q0 348 207 556.5t549 208.5q270 0 461 -178l-50 -51q-166 158 -411 158q-308 0 -492 -189t-184 -505q0 -318 178 -510.5t479 -192.5q126 0 239 32t177 87v487h-436v68h516v-580q-180 -166 -502 -166z" />
    <glyph glyph-name="uniE6CE" unicode="&#xff28;" 
d="M457 0v1487h75v-660h984v660h77v-1487h-77v760h-984v-760h-75z" />
    <glyph glyph-name="uniE6CF" unicode="&#xff29;" 
d="M557 0v70h430v1347h-430v70h934v-70h-430v-1347h430v-70h-934z" />
    <glyph glyph-name="uniE6D0" unicode="&#xff2a;" 
d="M961 -25q-271 0 -412 215l63 41q65 -97 151 -141.5t200 -44.5q166 0 249.5 87.5t83.5 270.5v1084h78v-1094q0 -92 -22.5 -165.5t-70 -131.5t-129 -89.5t-191.5 -31.5z" />
    <glyph glyph-name="uniE6D1" unicode="&#xff2b;" 
d="M549 0v1487h76v-858h8l891 858h96l-559 -547l635 -940h-90l-600 891l-381 -369v-522h-76z" />
    <glyph glyph-name="uniE6D2" unicode="&#xff2c;" 
d="M670 0v1487h75v-1419h824v-68h-899z" />
    <glyph glyph-name="uniE6D3" unicode="&#xff2d;" 
d="M369 0v1487h120l390 -897q112 -264 143 -336h8q26 61 71 173.5t66 162.5l392 897h120v-1487h-75v1028q0 86 10 389h-10l-142 -327l-399 -924h-80l-401 924l-138 327h-10q6 -181 6 -389v-1028h-71z" />
    <glyph glyph-name="uniE6D4" unicode="&#xff2e;" 
d="M463 0v1487h78l772 -1084l205 -292h10q-10 143 -10 419v957h73v-1487h-82l-772 1083l-202 293h-9q6 -209 6 -407v-969h-69z" />
    <glyph glyph-name="uniE6D5" unicode="&#xff2f;" 
d="M1024 -25q-154 0 -284 55t-222.5 155t-144 245t-51.5 318t51.5 316.5t144 241.5t222.5 151.5t284 53.5t284 -53.5t222.5 -151.5t144 -241.5t51.5 -316.5t-51.5 -318t-144 -245t-222.5 -155t-284 -55zM1024 45q279 0 451 192.5t172 510.5q0 317 -171.5 505.5t-451.5 188.5
t-451.5 -188.5t-171.5 -505.5q0 -318 172 -510.5t451 -192.5z" />
    <glyph glyph-name="uniE6D6" unicode="&#xff30;" 
d="M565 0v1487h416q308 0 462 -95t154 -311q0 -213 -155.5 -319.5t-452.5 -106.5h-348v-655h-76zM641 723h317q284 0 421 84t137 274q0 189 -136 263.5t-432 74.5h-307v-696z" />
    <glyph glyph-name="uniE6D7" unicode="&#xff31;" 
d="M1524 -344q-204 0 -344 87t-205 232q-143 9 -263.5 68.5t-206.5 158.5t-134.5 239.5t-48.5 306.5q0 173 51.5 317t144 242t222.5 152t284 54q153 0 283 -54t222.5 -152t144.5 -242t52 -317q0 -166 -49.5 -307t-137 -240.5t-210 -158t-266.5 -67.5q121 -243 471 -243
q94 0 176 24l19 -69q-83 -31 -205 -31zM1024 41q279 0 451 194t172 513q0 317 -171.5 505.5t-451.5 188.5t-451.5 -188.5t-171.5 -505.5q0 -319 172 -513t451 -194z" />
    <glyph glyph-name="uniE6D8" unicode="&#xff32;" 
d="M573 0v1487h476q557 0 557 -383q0 -179 -122.5 -280t-344.5 -119l493 -705h-90l-491 700h-402v-700h-76zM649 766h369q504 0 504 338q0 168 -127.5 241.5t-376.5 73.5h-369v-653z" />
    <glyph glyph-name="uniE6D9" unicode="&#xff33;" 
d="M1047 -27q-350 0 -580 230l55 53q98 -98 235 -154.5t290 -56.5q211 0 337.5 86t126.5 229q0 57 -18.5 103.5t-45.5 78.5t-74 61.5t-87 47.5t-102 41l-269 101q-38 14 -65.5 26t-66.5 31.5t-67 38.5t-58.5 46.5t-49 56.5t-31 67.5t-12.5 81.5q0 170 136.5 271t353.5 101
q278 0 471 -178l-53 -53q-174 160 -418 160q-184 0 -298 -76.5t-114 -202.5q0 -39 11.5 -73.5t28 -60.5t44.5 -50t52.5 -40.5t60 -33t58 -26t56.5 -21.5l267 -98q83 -30 142 -61t113.5 -77t82.5 -110t28 -145q0 -175 -147.5 -284.5t-392.5 -109.5z" />
    <glyph glyph-name="uniE6DA" unicode="&#xff34;" 
d="M983 0v1419h-569v68h1218v-68h-569v-1419h-80z" />
    <glyph glyph-name="uniE6DB" unicode="&#xff35;" 
d="M1022 -27q-89 0 -166.5 16.5t-152.5 58.5t-128 106.5t-85.5 168.5t-32.5 238v926h75v-909q0 -119 27 -212t72.5 -152.5t109.5 -98t133 -54.5t148 -16q80 0 149.5 16t135 54.5t112 98t74 152.5t27.5 212v909h75v-926q0 -133 -33.5 -237.5t-88 -169t-131 -106.5
t-154.5 -58.5t-166 -16.5z" />
    <glyph glyph-name="uniE6DC" unicode="&#xff36;" 
d="M987 0l-579 1487h79l342 -889q21 -54 60 -160t69 -183t64 -159h8q44 107 111 283.5t84 218.5l340 889h77l-577 -1487h-78z" />
    <glyph glyph-name="uniE6DD" unicode="&#xff37;" 
d="M504 0l-408 1487h80l240 -897q86 -324 129 -488h8q65 235 141 488l287 897h86l291 -897q94 -324 143 -488h10q19 71 119 488l242 897h76l-402 -1487h-80l-340 1061q-9 30 -43.5 148t-54.5 186h-8q-12 -41 -32 -106t-36.5 -120t-31.5 -108l-336 -1061h-80z" />
    <glyph glyph-name="uniE6DE" unicode="&#xff38;" 
d="M459 0l522 770l-487 717h84l305 -455q40 -57 143 -201h8q53 86 133 201l299 455h84l-485 -721l526 -766h-90l-315 475q-28 42 -89.5 128.5t-76.5 107.5h-8l-156 -236l-315 -475h-82z" />
    <glyph glyph-name="uniE6DF" unicode="&#xff39;" 
d="M985 0v610l-524 877h82l282 -477q18 -30 59.5 -101.5t72.5 -122.5t63 -100h8q144 224 197 324l284 477h76l-524 -877v-610h-76z" />
    <glyph glyph-name="uniE6E0" unicode="&#xff3a;" 
d="M459 0v45l1022 1374h-944v68h1046v-43l-1024 -1376h1049v-68h-1149z" />
    <glyph glyph-name="uniE6E7" unicode="&#xff41;" 
d="M1405 246v364q-285 -25 -455.5 -71.5t-240.5 -111.5t-70 -159q0 -79 47 -132t114 -74t148 -21q215 0 457 205zM1405 166h-4q-106 -84 -226 -137.5t-235 -53.5q-73 0 -138.5 17t-120 51t-86.5 91t-32 130q0 179 197 273.5t645 134.5q-1 60 -10.5 110.5t-33.5 98.5
t-60.5 81.5t-95 53.5t-134.5 20q-114 0 -227.5 -46.5t-188.5 -104.5l-39 57q74 58 202.5 109t258.5 51q104 0 183 -32t125.5 -88.5t69 -127.5t22.5 -156v-698h-64z" />
    <glyph glyph-name="uniE6E8" unicode="&#xff42;" 
d="M1028 -25q-91 0 -194 36t-193 98h-8l-10 -109h-62v1626h74v-483l-6 -217q249 176 450 176q128 0 226 -41t158 -114.5t90 -171.5t30 -218q0 -176 -76.5 -310t-201.5 -203t-277 -69zM1034 41q204 0 337.5 146t133.5 370q0 100 -23.5 183.5t-72.5 151.5t-134.5 106
t-201.5 38q-188 0 -438 -188v-662q101 -74 207.5 -109.5t191.5 -35.5z" />
    <glyph glyph-name="uniE6E9" unicode="&#xff43;" 
d="M1133 -25q-169 0 -300.5 66t-207.5 194.5t-76 301.5q0 174 79.5 304t210.5 195.5t294 65.5q124 0 216.5 -44.5t170.5 -119.5l-45 -53q-154 151 -342 151q-224 0 -365 -139.5t-141 -359.5q0 -222 139 -359t367 -137q204 0 374 160l41 -54q-180 -172 -415 -172z" />
    <glyph glyph-name="uniE6EA" unicode="&#xff44;" 
d="M981 -27q-235 0 -375.5 150t-140.5 414q0 128 44 235.5t119.5 180t178 113t217.5 40.5q112 0 200 -32.5t195 -102.5l-6 203v452h74v-1626h-62l-10 143h-6q-196 -170 -428 -170zM989 41q207 0 424 186v664q-103 78 -196.5 112.5t-196.5 34.5q-132 0 -241.5 -66.5
t-172.5 -181.5t-63 -253q0 -218 122 -357t324 -139z" />
    <glyph glyph-name="uniE6EB" unicode="&#xff45;" 
d="M584 598h907q0 212 -115 325t-311 113q-118 0 -221.5 -53t-173.5 -153.5t-86 -231.5zM1487 160l31 -62q-89 -57 -187.5 -90t-238.5 -33q-160 0 -291.5 66.5t-212 196t-80.5 299.5q0 126 47 234t125.5 179.5t178.5 111.5t206 40q228 0 363 -132t135 -362q0 -49 -4 -76
h-975q0 -215 141.5 -353t370.5 -138q225 0 391 119z" />
    <glyph glyph-name="uniE6EC" unicode="&#xff46;" 
d="M944 0v1012h-328v55l328 10v142q0 208 99.5 320t295.5 112q156 0 297 -66l-26 -57q-74 35 -131 46t-140 11q-170 0 -248.5 -94.5t-78.5 -263.5v-150h516v-65h-516v-1012h-68z" />
    <glyph glyph-name="uniE6ED" unicode="&#xff47;" 
d="M1241 4h-291q-96 0 -166 21q-184 -99 -184 -242q0 -108 112 -175t326 -67q221 0 358.5 89.5t137.5 203.5q0 93 -71 131.5t-222 38.5zM1016 406q142 0 238 89t96 226q0 134 -98.5 224.5t-235.5 90.5q-140 0 -238 -90t-98 -225q0 -136 98 -225.5t238 -89.5zM928 78h297
q205 0 295 -55.5t90 -182.5q0 -69 -40 -134t-111 -116.5t-178 -82.5t-232 -31q-258 0 -391.5 85.5t-133.5 229.5q0 63 49.5 133.5t135.5 124.5v10q-47 22 -80 65t-33 105q0 52 35 106t100 97v10q-127 106 -127 279q0 161 121 271t291 110q87 0 151 -25h443v-65h-332
q67 -52 106 -126.5t39 -164.5q0 -163 -117 -272t-290 -109q-125 0 -230 57q-114 -72 -114 -159q0 -79 68.5 -119.5t187.5 -40.5z" />
    <glyph glyph-name="uniE6EE" unicode="&#xff48;" 
d="M590 0v1626h74v-723q110 98 216 150.5t230 52.5q183 0 279 -102t96 -310v-694h-74v684q0 180 -77.5 267t-235.5 87q-113 0 -209.5 -50t-224.5 -163v-825h-74z" />
    <glyph glyph-name="uniE6EF" unicode="&#xff49;" 
d="M987 0v1077h74v-1077h-74zM1024 1348q-40 0 -67 27t-27 71q0 45 26.5 71.5t67.5 26.5t67.5 -26.5t26.5 -71.5q0 -44 -27 -71t-67 -27z" />
    <glyph glyph-name="uniE6F0" unicode="&#xff4a;" 
d="M784 -524q-70 0 -148 19.5t-138 51.5l30 62q129 -68 269 -68q95 0 160.5 24.5t101.5 72t51.5 107t15.5 140.5v1192h74v-1179q0 -209 -95.5 -315.5t-320.5 -106.5zM1163 1348q-40 0 -67 27t-27 71q0 45 26.5 71.5t67.5 26.5t67.5 -26.5t26.5 -71.5q0 -44 -27 -71t-67 -27z
" />
    <glyph glyph-name="uniE6F1" unicode="&#xff4b;" 
d="M666 0v1626h73v-1229h6l660 682h88l-408 -426l482 -653h-82l-443 602l-303 -305v-297h-73z" />
    <glyph glyph-name="uniE6F2" unicode="&#xff4c;" 
d="M1284 -25q-152 0 -230.5 81.5t-78.5 258.5v1311h74v-1327q0 -258 239 -258q100 0 232 57l26 -57q-58 -24 -86.5 -34.5t-78 -21t-97.5 -10.5z" />
    <glyph glyph-name="uniE6F3" unicode="&#xff4d;" 
d="M213 0v1079h61l13 -172h4q206 199 405 199q145 0 226.5 -59t119.5 -166q243 225 439 225q368 0 368 -412v-694h-73v684q0 178 -73 266t-230 88q-96 0 -193 -52t-213 -161v-825h-74v684q0 173 -75.5 263.5t-227.5 90.5q-187 0 -403 -213v-825h-74z" />
    <glyph glyph-name="uniE6F4" unicode="&#xff4e;" 
d="M586 0v1079h61l12 -172h5q109 95 214.5 147t229.5 52q373 0 373 -412v-694h-74v684q0 179 -75 266.5t-236 87.5q-113 0 -210 -50t-227 -163v-825h-73z" />
    <glyph glyph-name="uniE6F5" unicode="&#xff4f;" 
d="M1024 -25q-153 0 -279.5 65.5t-204 195t-77.5 301.5q0 131 45 239.5t122 178.5t178.5 108.5t215.5 38.5t215.5 -38.5t178.5 -108.5t122 -178.5t45 -239.5q0 -172 -77.5 -301.5t-204 -195t-279.5 -65.5zM1024 41q205 0 340 138.5t135 357.5t-135.5 359t-339.5 140
t-339.5 -140t-135.5 -359t135 -357.5t340 -138.5z" />
    <glyph glyph-name="uniE6F6" unicode="&#xff50;" 
d="M633 852v-666q106 -75 210 -110t189 -35q207 0 338 144t131 370q0 106 -23.5 191.5t-73.5 152t-134.5 103t-198.5 36.5q-182 0 -438 -186zM559 -498v1577h62l12 -139h6q247 166 438 166q245 0 373.5 -147t128.5 -404q0 -134 -45 -245.5t-121.5 -184t-176.5 -112.5
t-210 -40q-180 0 -393 136v-607h-74z" />
    <glyph glyph-name="uniE6F7" unicode="&#xff51;" 
d="M1409 -498l4 426l6 222q-216 -177 -438 -177q-232 0 -373 147t-141 417q0 169 77.5 300.5t204 200t275.5 68.5q109 0 197.5 -31.5t187.5 -95.5h6l10 100h62v-1577h-78zM989 41q207 0 424 186v664q-193 147 -393 147q-133 0 -242 -66.5t-171 -181.5t-62 -253
q0 -226 119 -361t325 -135z" />
    <glyph glyph-name="uniE6F8" unicode="&#xff52;" 
d="M729 0v1077h64l8 -268h4q92 135 224 214t290 79q120 0 221 -45l-24 -66q-99 41 -205 41q-146 0 -270.5 -81.5t-239.5 -264.5v-686h-72z" />
    <glyph glyph-name="uniE6F9" unicode="&#xff53;" 
d="M1073 -25q-298 0 -530 168l45 58q94 -79 208.5 -119.5t280.5 -40.5q167 0 260 65t93 160q0 33 -9 59t-35 54t-70 51.5t-115.5 48t-170.5 47.5q-197 45 -312.5 120.5t-115.5 178.5q0 118 105.5 197.5t308.5 79.5q105 0 218 -35.5t189 -93.5l-43 -55q-154 118 -370 118
q-174 0 -251 -59t-77 -148q0 -78 95 -134.5t276 -100.5q176 -43 275 -89.5t138 -100.5t39 -132q0 -124 -117 -210.5t-315 -86.5z" />
    <glyph glyph-name="uniE6FA" unicode="&#xff54;" 
d="M1245 -25q-107 0 -181.5 30t-116.5 87.5t-60.5 132t-18.5 174.5v613h-333v55l333 10l9 316h63v-316h588v-65h-588v-623q0 -86 13.5 -146t47 -107.5t95 -71t153.5 -23.5q150 0 297 55l23 -55q-71 -30 -160 -48t-164 -18z" />
    <glyph glyph-name="uniE6FB" unicode="&#xff55;" 
d="M942 -27q-373 0 -373 412v694h74v-686q0 -180 75.5 -266t233.5 -86q116 0 214 53.5t220 177.5v807h74v-1079h-63l-8 184h-5q-104 -102 -210 -156.5t-232 -54.5z" />
    <glyph glyph-name="uniE6FC" unicode="&#xff56;" 
d="M983 0l-477 1079h82l301 -696q130 -300 133 -307h8q68 142 133 307l303 696h76l-471 -1079h-88z" />
    <glyph glyph-name="uniE6FD" unicode="&#xff57;" 
d="M586 0l-383 1079h82l250 -723q15 -54 45.5 -148.5t42.5 -135.5h10q51 145 94 284l250 723h98l252 -723q6 -17 94 -284h9q18 55 55 160.5t43 123.5l241 723h74l-370 -1079h-101l-244 698q-14 41 -46.5 145.5t-53.5 162.5h-10q-70 -208 -109 -312l-235 -694h-88z" />
    <glyph glyph-name="uniE6FE" unicode="&#xff58;" 
d="M547 0l432 563l-393 516h82l219 -286q25 -32 72 -92.5t67 -86.5h8q95 129 135 179l213 286h80l-395 -520l434 -559h-86l-237 309q-68 95 -156 199h-10q-37 -46 -152 -199l-231 -309h-82z" />
    <glyph glyph-name="uniE6FF" unicode="&#xff59;" 
d="M643 -500q-68 0 -123 25l21 67q50 -20 106 -20q114 0 194 80.5t140 222.5l39 100l-520 1104h84l323 -704q91 -196 144 -303h10q20 46 123 303l286 704h78l-499 -1231q-27 -68 -62.5 -126t-85 -110t-116 -82t-142.5 -30z" />
    <glyph glyph-name="uniE700" unicode="&#xff5a;" 
d="M510 0v41l879 971h-787v65h899v-41l-874 -970h901v-66h-1018z" />
  </font>
</defs>
</svg>
